G04 #@! TF.GenerationSoftware,KiCad,Pcbnew,(5.1.2)-1*
G04 #@! TF.CreationDate,2020-10-02T01:28:07+09:00*
G04 #@! TF.ProjectId,minimal-atmega328p,6d696e69-6d61-46c2-9d61-746d65676133,rev?*
G04 #@! TF.SameCoordinates,Original*
G04 #@! TF.FileFunction,Other,ECO2*
%FSLAX46Y46*%
G04 Gerber Fmt 4.6, Leading zero omitted, Abs format (unit mm)*
G04 Created by KiCad (PCBNEW (5.1.2)-1) date 2020-10-02 01:28:07*
%MOMM*%
%LPD*%
G04 APERTURE LIST*
%ADD10C,0.150000*%
G04 APERTURE END LIST*
D10*
X63957157Y-106541280D02*
X64290490Y-107541280D01*
X64623823Y-106541280D01*
X64957157Y-107160328D02*
X65719061Y-107160328D01*
X66766680Y-107446042D02*
X66719061Y-107493661D01*
X66576204Y-107541280D01*
X66480966Y-107541280D01*
X66338109Y-107493661D01*
X66242871Y-107398423D01*
X66195252Y-107303185D01*
X66147633Y-107112709D01*
X66147633Y-106969852D01*
X66195252Y-106779376D01*
X66242871Y-106684138D01*
X66338109Y-106588900D01*
X66480966Y-106541280D01*
X66576204Y-106541280D01*
X66719061Y-106588900D01*
X66766680Y-106636519D01*
X67195252Y-106541280D02*
X67195252Y-107350804D01*
X67242871Y-107446042D01*
X67290490Y-107493661D01*
X67385728Y-107541280D01*
X67576204Y-107541280D01*
X67671442Y-107493661D01*
X67719061Y-107446042D01*
X67766680Y-107350804D01*
X67766680Y-106541280D01*
X68100014Y-106541280D02*
X68671442Y-106541280D01*
X68385728Y-107541280D02*
X68385728Y-106541280D01*
X63957157Y-86541280D02*
X64290490Y-87541280D01*
X64623823Y-86541280D01*
X64957157Y-87160328D02*
X65719061Y-87160328D01*
X66766680Y-87446042D02*
X66719061Y-87493661D01*
X66576204Y-87541280D01*
X66480966Y-87541280D01*
X66338109Y-87493661D01*
X66242871Y-87398423D01*
X66195252Y-87303185D01*
X66147633Y-87112709D01*
X66147633Y-86969852D01*
X66195252Y-86779376D01*
X66242871Y-86684138D01*
X66338109Y-86588900D01*
X66480966Y-86541280D01*
X66576204Y-86541280D01*
X66719061Y-86588900D01*
X66766680Y-86636519D01*
X67195252Y-86541280D02*
X67195252Y-87350804D01*
X67242871Y-87446042D01*
X67290490Y-87493661D01*
X67385728Y-87541280D01*
X67576204Y-87541280D01*
X67671442Y-87493661D01*
X67719061Y-87446042D01*
X67766680Y-87350804D01*
X67766680Y-86541280D01*
X68100014Y-86541280D02*
X68671442Y-86541280D01*
X68385728Y-87541280D02*
X68385728Y-86541280D01*
X63957157Y-66541280D02*
X64290490Y-67541280D01*
X64623823Y-66541280D01*
X64957157Y-67160328D02*
X65719061Y-67160328D01*
X66766680Y-67446042D02*
X66719061Y-67493661D01*
X66576204Y-67541280D01*
X66480966Y-67541280D01*
X66338109Y-67493661D01*
X66242871Y-67398423D01*
X66195252Y-67303185D01*
X66147633Y-67112709D01*
X66147633Y-66969852D01*
X66195252Y-66779376D01*
X66242871Y-66684138D01*
X66338109Y-66588900D01*
X66480966Y-66541280D01*
X66576204Y-66541280D01*
X66719061Y-66588900D01*
X66766680Y-66636519D01*
X67195252Y-66541280D02*
X67195252Y-67350804D01*
X67242871Y-67446042D01*
X67290490Y-67493661D01*
X67385728Y-67541280D01*
X67576204Y-67541280D01*
X67671442Y-67493661D01*
X67719061Y-67446042D01*
X67766680Y-67350804D01*
X67766680Y-66541280D01*
X68100014Y-66541280D02*
X68671442Y-66541280D01*
X68385728Y-67541280D02*
X68385728Y-66541280D01*
X133957157Y-106541280D02*
X134290490Y-107541280D01*
X134623823Y-106541280D01*
X134957157Y-107160328D02*
X135719061Y-107160328D01*
X136766680Y-107446042D02*
X136719061Y-107493661D01*
X136576204Y-107541280D01*
X136480966Y-107541280D01*
X136338109Y-107493661D01*
X136242871Y-107398423D01*
X136195252Y-107303185D01*
X136147633Y-107112709D01*
X136147633Y-106969852D01*
X136195252Y-106779376D01*
X136242871Y-106684138D01*
X136338109Y-106588900D01*
X136480966Y-106541280D01*
X136576204Y-106541280D01*
X136719061Y-106588900D01*
X136766680Y-106636519D01*
X137195252Y-106541280D02*
X137195252Y-107350804D01*
X137242871Y-107446042D01*
X137290490Y-107493661D01*
X137385728Y-107541280D01*
X137576204Y-107541280D01*
X137671442Y-107493661D01*
X137719061Y-107446042D01*
X137766680Y-107350804D01*
X137766680Y-106541280D01*
X138100014Y-106541280D02*
X138671442Y-106541280D01*
X138385728Y-107541280D02*
X138385728Y-106541280D01*
X133957157Y-86541280D02*
X134290490Y-87541280D01*
X134623823Y-86541280D01*
X134957157Y-87160328D02*
X135719061Y-87160328D01*
X136766680Y-87446042D02*
X136719061Y-87493661D01*
X136576204Y-87541280D01*
X136480966Y-87541280D01*
X136338109Y-87493661D01*
X136242871Y-87398423D01*
X136195252Y-87303185D01*
X136147633Y-87112709D01*
X136147633Y-86969852D01*
X136195252Y-86779376D01*
X136242871Y-86684138D01*
X136338109Y-86588900D01*
X136480966Y-86541280D01*
X136576204Y-86541280D01*
X136719061Y-86588900D01*
X136766680Y-86636519D01*
X137195252Y-86541280D02*
X137195252Y-87350804D01*
X137242871Y-87446042D01*
X137290490Y-87493661D01*
X137385728Y-87541280D01*
X137576204Y-87541280D01*
X137671442Y-87493661D01*
X137719061Y-87446042D01*
X137766680Y-87350804D01*
X137766680Y-86541280D01*
X138100014Y-86541280D02*
X138671442Y-86541280D01*
X138385728Y-87541280D02*
X138385728Y-86541280D01*
X133957157Y-66541280D02*
X134290490Y-67541280D01*
X134623823Y-66541280D01*
X134957157Y-67160328D02*
X135719061Y-67160328D01*
X136766680Y-67446042D02*
X136719061Y-67493661D01*
X136576204Y-67541280D01*
X136480966Y-67541280D01*
X136338109Y-67493661D01*
X136242871Y-67398423D01*
X136195252Y-67303185D01*
X136147633Y-67112709D01*
X136147633Y-66969852D01*
X136195252Y-66779376D01*
X136242871Y-66684138D01*
X136338109Y-66588900D01*
X136480966Y-66541280D01*
X136576204Y-66541280D01*
X136719061Y-66588900D01*
X136766680Y-66636519D01*
X137195252Y-66541280D02*
X137195252Y-67350804D01*
X137242871Y-67446042D01*
X137290490Y-67493661D01*
X137385728Y-67541280D01*
X137576204Y-67541280D01*
X137671442Y-67493661D01*
X137719061Y-67446042D01*
X137766680Y-67350804D01*
X137766680Y-66541280D01*
X138100014Y-66541280D02*
X138671442Y-66541280D01*
X138385728Y-67541280D02*
X138385728Y-66541280D01*
X71314300Y-67088900D02*
X131314300Y-67088900D01*
X71314300Y-87088900D02*
X131314300Y-87088900D01*
X71314300Y-107088900D02*
X131314300Y-107088900D01*
X76314300Y-47088900D02*
X76314300Y-127088900D01*
X126314300Y-47088900D02*
X76314300Y-47088900D01*
X126314300Y-127088900D02*
X126314300Y-47088900D01*
X76314300Y-127088900D02*
X126314300Y-127088900D01*
M02*
