G04 #@! TF.GenerationSoftware,KiCad,Pcbnew,(5.1.2)-1*
G04 #@! TF.CreationDate,2020-10-02T01:28:06+09:00*
G04 #@! TF.ProjectId,minimal-atmega328p,6d696e69-6d61-46c2-9d61-746d65676133,rev?*
G04 #@! TF.SameCoordinates,Original*
G04 #@! TF.FileFunction,Legend,Bot*
G04 #@! TF.FilePolarity,Positive*
%FSLAX46Y46*%
G04 Gerber Fmt 4.6, Leading zero omitted, Abs format (unit mm)*
G04 Created by KiCad (PCBNEW (5.1.2)-1) date 2020-10-02 01:28:07*
%MOMM*%
%LPD*%
G04 APERTURE LIST*
%ADD10C,0.120000*%
G04 APERTURE END LIST*
D10*
X108084300Y-55668900D02*
X104044300Y-55668900D01*
X108084300Y-58508900D02*
X104044300Y-58508900D01*
X108084300Y-55668900D02*
X108084300Y-56293900D01*
X108084300Y-57883900D02*
X108084300Y-58508900D01*
X104044300Y-55668900D02*
X104044300Y-56293900D01*
X104044300Y-57883900D02*
X104044300Y-58508900D01*
X90084300Y-55668900D02*
X86044300Y-55668900D01*
X90084300Y-58508900D02*
X86044300Y-58508900D01*
X90084300Y-55668900D02*
X90084300Y-56293900D01*
X90084300Y-57883900D02*
X90084300Y-58508900D01*
X86044300Y-55668900D02*
X86044300Y-56293900D01*
X86044300Y-57883900D02*
X86044300Y-58508900D01*
X116544300Y-58508900D02*
X120584300Y-58508900D01*
X116544300Y-55668900D02*
X120584300Y-55668900D01*
X116544300Y-58508900D02*
X116544300Y-57883900D01*
X116544300Y-56293900D02*
X116544300Y-55668900D01*
X120584300Y-58508900D02*
X120584300Y-57883900D01*
X120584300Y-56293900D02*
X120584300Y-55668900D01*
X100569300Y-54403900D02*
X94169300Y-54403900D01*
X100569300Y-59453900D02*
X94169300Y-59453900D01*
X100569300Y-59453900D02*
G75*
G03X100569300Y-54403900I0J2525000D01*
G01*
X94169300Y-59453900D02*
G75*
G02X94169300Y-54403900I0J2525000D01*
G01*
X108084300Y-75668900D02*
X104044300Y-75668900D01*
X108084300Y-78508900D02*
X104044300Y-78508900D01*
X108084300Y-75668900D02*
X108084300Y-76293900D01*
X108084300Y-77883900D02*
X108084300Y-78508900D01*
X104044300Y-75668900D02*
X104044300Y-76293900D01*
X104044300Y-77883900D02*
X104044300Y-78508900D01*
X90084300Y-75668900D02*
X86044300Y-75668900D01*
X90084300Y-78508900D02*
X86044300Y-78508900D01*
X90084300Y-75668900D02*
X90084300Y-76293900D01*
X90084300Y-77883900D02*
X90084300Y-78508900D01*
X86044300Y-75668900D02*
X86044300Y-76293900D01*
X86044300Y-77883900D02*
X86044300Y-78508900D01*
X116544300Y-78508900D02*
X120584300Y-78508900D01*
X116544300Y-75668900D02*
X120584300Y-75668900D01*
X116544300Y-78508900D02*
X116544300Y-77883900D01*
X116544300Y-76293900D02*
X116544300Y-75668900D01*
X120584300Y-78508900D02*
X120584300Y-77883900D01*
X120584300Y-76293900D02*
X120584300Y-75668900D01*
X100569300Y-74403900D02*
X94169300Y-74403900D01*
X100569300Y-79453900D02*
X94169300Y-79453900D01*
X100569300Y-79453900D02*
G75*
G03X100569300Y-74403900I0J2525000D01*
G01*
X94169300Y-79453900D02*
G75*
G02X94169300Y-74403900I0J2525000D01*
G01*
X108084300Y-95668900D02*
X104044300Y-95668900D01*
X108084300Y-98508900D02*
X104044300Y-98508900D01*
X108084300Y-95668900D02*
X108084300Y-96293900D01*
X108084300Y-97883900D02*
X108084300Y-98508900D01*
X104044300Y-95668900D02*
X104044300Y-96293900D01*
X104044300Y-97883900D02*
X104044300Y-98508900D01*
X90084300Y-95668900D02*
X86044300Y-95668900D01*
X90084300Y-98508900D02*
X86044300Y-98508900D01*
X90084300Y-95668900D02*
X90084300Y-96293900D01*
X90084300Y-97883900D02*
X90084300Y-98508900D01*
X86044300Y-95668900D02*
X86044300Y-96293900D01*
X86044300Y-97883900D02*
X86044300Y-98508900D01*
X116544300Y-98508900D02*
X120584300Y-98508900D01*
X116544300Y-95668900D02*
X120584300Y-95668900D01*
X116544300Y-98508900D02*
X116544300Y-97883900D01*
X116544300Y-96293900D02*
X116544300Y-95668900D01*
X120584300Y-98508900D02*
X120584300Y-97883900D01*
X120584300Y-96293900D02*
X120584300Y-95668900D01*
X100569300Y-94403900D02*
X94169300Y-94403900D01*
X100569300Y-99453900D02*
X94169300Y-99453900D01*
X100569300Y-99453900D02*
G75*
G03X100569300Y-94403900I0J2525000D01*
G01*
X94169300Y-99453900D02*
G75*
G02X94169300Y-94403900I0J2525000D01*
G01*
X94169300Y-119453900D02*
G75*
G02X94169300Y-114403900I0J2525000D01*
G01*
X100569300Y-119453900D02*
G75*
G03X100569300Y-114403900I0J2525000D01*
G01*
X100569300Y-119453900D02*
X94169300Y-119453900D01*
X100569300Y-114403900D02*
X94169300Y-114403900D01*
X120584300Y-116293900D02*
X120584300Y-115668900D01*
X120584300Y-118508900D02*
X120584300Y-117883900D01*
X116544300Y-116293900D02*
X116544300Y-115668900D01*
X116544300Y-118508900D02*
X116544300Y-117883900D01*
X116544300Y-115668900D02*
X120584300Y-115668900D01*
X116544300Y-118508900D02*
X120584300Y-118508900D01*
X86044300Y-117883900D02*
X86044300Y-118508900D01*
X86044300Y-115668900D02*
X86044300Y-116293900D01*
X90084300Y-117883900D02*
X90084300Y-118508900D01*
X90084300Y-115668900D02*
X90084300Y-116293900D01*
X90084300Y-118508900D02*
X86044300Y-118508900D01*
X90084300Y-115668900D02*
X86044300Y-115668900D01*
X104044300Y-117883900D02*
X104044300Y-118508900D01*
X104044300Y-115668900D02*
X104044300Y-116293900D01*
X108084300Y-117883900D02*
X108084300Y-118508900D01*
X108084300Y-115668900D02*
X108084300Y-116293900D01*
X108084300Y-118508900D02*
X104044300Y-118508900D01*
X108084300Y-115668900D02*
X104044300Y-115668900D01*
M02*
