G04 #@! TF.GenerationSoftware,KiCad,Pcbnew,(5.1.2)-1*
G04 #@! TF.CreationDate,2020-10-02T01:28:06+09:00*
G04 #@! TF.ProjectId,minimal-atmega328p,6d696e69-6d61-46c2-9d61-746d65676133,rev?*
G04 #@! TF.SameCoordinates,Original*
G04 #@! TF.FileFunction,Legend,Top*
G04 #@! TF.FilePolarity,Positive*
%FSLAX46Y46*%
G04 Gerber Fmt 4.6, Leading zero omitted, Abs format (unit mm)*
G04 Created by KiCad (PCBNEW (5.1.2)-1) date 2020-10-02 01:28:06*
%MOMM*%
%LPD*%
G04 APERTURE LIST*
%ADD10C,0.120000*%
G04 APERTURE END LIST*
D10*
X85144300Y-63218900D02*
X85144300Y-65878900D01*
X118224300Y-63218900D02*
X85144300Y-63218900D01*
X118224300Y-65878900D02*
X85144300Y-65878900D01*
X118224300Y-63218900D02*
X118224300Y-65878900D01*
X119494300Y-63218900D02*
X120824300Y-63218900D01*
X120824300Y-63218900D02*
X120824300Y-64548900D01*
X83719300Y-59103900D02*
X83719300Y-54603900D01*
X79719300Y-60353900D02*
X81219300Y-60353900D01*
X77219300Y-54603900D02*
X77219300Y-59103900D01*
X81219300Y-53353900D02*
X79719300Y-53353900D01*
X82764300Y-49943900D02*
G75*
G03X82764300Y-49943900I-1370000J0D01*
G01*
X80024300Y-49943900D02*
X79954300Y-49943900D01*
X122609300Y-64608900D02*
X125269300Y-64608900D01*
X122609300Y-51848900D02*
X122609300Y-64608900D01*
X125269300Y-51848900D02*
X125269300Y-64608900D01*
X122609300Y-51848900D02*
X125269300Y-51848900D01*
X122609300Y-50578900D02*
X122609300Y-49248900D01*
X122609300Y-49248900D02*
X123939300Y-49248900D01*
X85144300Y-47978900D02*
X85144300Y-50638900D01*
X118224300Y-47978900D02*
X85144300Y-47978900D01*
X118224300Y-50638900D02*
X85144300Y-50638900D01*
X118224300Y-47978900D02*
X118224300Y-50638900D01*
X119494300Y-47978900D02*
X120824300Y-47978900D01*
X120824300Y-47978900D02*
X120824300Y-49308900D01*
X120824300Y-57928900D02*
G75*
G02X120824300Y-55928900I0J1000000D01*
G01*
X120824300Y-55928900D02*
X120824300Y-54278900D01*
X120824300Y-54278900D02*
X85144300Y-54278900D01*
X85144300Y-54278900D02*
X85144300Y-59578900D01*
X85144300Y-59578900D02*
X120824300Y-59578900D01*
X120824300Y-59578900D02*
X120824300Y-57928900D01*
X85144300Y-83218900D02*
X85144300Y-85878900D01*
X118224300Y-83218900D02*
X85144300Y-83218900D01*
X118224300Y-85878900D02*
X85144300Y-85878900D01*
X118224300Y-83218900D02*
X118224300Y-85878900D01*
X119494300Y-83218900D02*
X120824300Y-83218900D01*
X120824300Y-83218900D02*
X120824300Y-84548900D01*
X83719300Y-79103900D02*
X83719300Y-74603900D01*
X79719300Y-80353900D02*
X81219300Y-80353900D01*
X77219300Y-74603900D02*
X77219300Y-79103900D01*
X81219300Y-73353900D02*
X79719300Y-73353900D01*
X82764300Y-69943900D02*
G75*
G03X82764300Y-69943900I-1370000J0D01*
G01*
X80024300Y-69943900D02*
X79954300Y-69943900D01*
X122609300Y-84608900D02*
X125269300Y-84608900D01*
X122609300Y-71848900D02*
X122609300Y-84608900D01*
X125269300Y-71848900D02*
X125269300Y-84608900D01*
X122609300Y-71848900D02*
X125269300Y-71848900D01*
X122609300Y-70578900D02*
X122609300Y-69248900D01*
X122609300Y-69248900D02*
X123939300Y-69248900D01*
X85144300Y-67978900D02*
X85144300Y-70638900D01*
X118224300Y-67978900D02*
X85144300Y-67978900D01*
X118224300Y-70638900D02*
X85144300Y-70638900D01*
X118224300Y-67978900D02*
X118224300Y-70638900D01*
X119494300Y-67978900D02*
X120824300Y-67978900D01*
X120824300Y-67978900D02*
X120824300Y-69308900D01*
X120824300Y-77928900D02*
G75*
G02X120824300Y-75928900I0J1000000D01*
G01*
X120824300Y-75928900D02*
X120824300Y-74278900D01*
X120824300Y-74278900D02*
X85144300Y-74278900D01*
X85144300Y-74278900D02*
X85144300Y-79578900D01*
X85144300Y-79578900D02*
X120824300Y-79578900D01*
X120824300Y-79578900D02*
X120824300Y-77928900D01*
X85144300Y-103218900D02*
X85144300Y-105878900D01*
X118224300Y-103218900D02*
X85144300Y-103218900D01*
X118224300Y-105878900D02*
X85144300Y-105878900D01*
X118224300Y-103218900D02*
X118224300Y-105878900D01*
X119494300Y-103218900D02*
X120824300Y-103218900D01*
X120824300Y-103218900D02*
X120824300Y-104548900D01*
X83719300Y-99103900D02*
X83719300Y-94603900D01*
X79719300Y-100353900D02*
X81219300Y-100353900D01*
X77219300Y-94603900D02*
X77219300Y-99103900D01*
X81219300Y-93353900D02*
X79719300Y-93353900D01*
X82764300Y-89943900D02*
G75*
G03X82764300Y-89943900I-1370000J0D01*
G01*
X80024300Y-89943900D02*
X79954300Y-89943900D01*
X122609300Y-104608900D02*
X125269300Y-104608900D01*
X122609300Y-91848900D02*
X122609300Y-104608900D01*
X125269300Y-91848900D02*
X125269300Y-104608900D01*
X122609300Y-91848900D02*
X125269300Y-91848900D01*
X122609300Y-90578900D02*
X122609300Y-89248900D01*
X122609300Y-89248900D02*
X123939300Y-89248900D01*
X85144300Y-87978900D02*
X85144300Y-90638900D01*
X118224300Y-87978900D02*
X85144300Y-87978900D01*
X118224300Y-90638900D02*
X85144300Y-90638900D01*
X118224300Y-87978900D02*
X118224300Y-90638900D01*
X119494300Y-87978900D02*
X120824300Y-87978900D01*
X120824300Y-87978900D02*
X120824300Y-89308900D01*
X120824300Y-97928900D02*
G75*
G02X120824300Y-95928900I0J1000000D01*
G01*
X120824300Y-95928900D02*
X120824300Y-94278900D01*
X120824300Y-94278900D02*
X85144300Y-94278900D01*
X85144300Y-94278900D02*
X85144300Y-99578900D01*
X85144300Y-99578900D02*
X120824300Y-99578900D01*
X120824300Y-99578900D02*
X120824300Y-97928900D01*
X120824300Y-119578900D02*
X120824300Y-117928900D01*
X85144300Y-119578900D02*
X120824300Y-119578900D01*
X85144300Y-114278900D02*
X85144300Y-119578900D01*
X120824300Y-114278900D02*
X85144300Y-114278900D01*
X120824300Y-115928900D02*
X120824300Y-114278900D01*
X120824300Y-117928900D02*
G75*
G02X120824300Y-115928900I0J1000000D01*
G01*
X81219300Y-113353900D02*
X79719300Y-113353900D01*
X77219300Y-114603900D02*
X77219300Y-119103900D01*
X79719300Y-120353900D02*
X81219300Y-120353900D01*
X83719300Y-119103900D02*
X83719300Y-114603900D01*
X80024300Y-109943900D02*
X79954300Y-109943900D01*
X82764300Y-109943900D02*
G75*
G03X82764300Y-109943900I-1370000J0D01*
G01*
X120824300Y-123218900D02*
X120824300Y-124548900D01*
X119494300Y-123218900D02*
X120824300Y-123218900D01*
X118224300Y-123218900D02*
X118224300Y-125878900D01*
X118224300Y-125878900D02*
X85144300Y-125878900D01*
X118224300Y-123218900D02*
X85144300Y-123218900D01*
X85144300Y-123218900D02*
X85144300Y-125878900D01*
X122609300Y-109248900D02*
X123939300Y-109248900D01*
X122609300Y-110578900D02*
X122609300Y-109248900D01*
X122609300Y-111848900D02*
X125269300Y-111848900D01*
X125269300Y-111848900D02*
X125269300Y-124608900D01*
X122609300Y-111848900D02*
X122609300Y-124608900D01*
X122609300Y-124608900D02*
X125269300Y-124608900D01*
X120824300Y-107978900D02*
X120824300Y-109308900D01*
X119494300Y-107978900D02*
X120824300Y-107978900D01*
X118224300Y-107978900D02*
X118224300Y-110638900D01*
X118224300Y-110638900D02*
X85144300Y-110638900D01*
X118224300Y-107978900D02*
X85144300Y-107978900D01*
X85144300Y-107978900D02*
X85144300Y-110638900D01*
M02*
