M48
; DRILL file {KiCad (5.1.4)-1} date 2020/10/05 9:55:13
; FORMAT={-:-/ absolute / inch / decimal}
; #@! TF.CreationDate,2020-10-05T09:55:13+09:00
; #@! TF.GenerationSoftware,Kicad,Pcbnew,(5.1.4)-1
; #@! TF.FileFunction,Plated,1,2,PTH
FMAT,2
INCH
T1C0.0157
T2C0.0315
T3C0.0394
T4C0.0433
%
G90
G05
T1
X4.4612Y-2.1492
X4.4612Y-2.9366
X4.4612Y-3.724
X4.4612Y-4.5114
X6.4087Y-2.149
X6.4087Y-2.9364
X6.4087Y-3.7238
X6.4087Y-4.5112
T2
X6.0741Y-2.2474
X6.1725Y-2.2474
X6.0741Y-4.6096
X6.1725Y-4.6096
X5.6849Y-3.0285
X5.877Y-3.0285
X5.052Y-1.9661
X5.152Y-1.9661
X5.352Y-4.4533
X5.352Y-4.7533
X5.452Y-4.4533
X5.452Y-4.7533
X5.552Y-4.4533
X5.552Y-4.7533
X5.652Y-4.4533
X5.652Y-4.7533
X5.752Y-4.4533
X5.752Y-4.7533
X5.852Y-4.4533
X5.852Y-4.7533
X5.952Y-4.4533
X5.952Y-4.7533
X6.052Y-4.4533
X6.052Y-4.7533
X6.152Y-4.4533
X6.152Y-4.7533
X6.252Y-4.4533
X6.252Y-4.7533
X6.352Y-4.4533
X6.352Y-4.7533
X6.452Y-4.4533
X6.452Y-4.7533
X6.552Y-4.4533
X6.552Y-4.7533
X6.652Y-4.4533
X6.652Y-4.7533
X5.052Y-2.7535
X5.152Y-2.7535
X4.6187Y-3.035
X4.7171Y-3.035
X3.7374Y-4.6035
X3.9295Y-4.6035
X5.3654Y-3.8222
X5.4638Y-3.8222
X3.7374Y-3.8161
X3.9295Y-3.8161
X6.5662Y-2.2474
X6.6646Y-2.2474
X3.1045Y-4.3285
X3.2045Y-4.3285
X6.5662Y-3.0348
X6.6646Y-3.0348
X4.6187Y-4.6098
X4.7171Y-4.6098
X4.1265Y-2.2476
X4.225Y-2.2476
X5.052Y-3.5409
X5.152Y-3.5409
X5.3654Y-4.6096
X5.4638Y-4.6096
X5.352Y-2.0911
X5.352Y-2.3911
X5.452Y-2.0911
X5.452Y-2.3911
X5.552Y-2.0911
X5.552Y-2.3911
X5.652Y-2.0911
X5.652Y-2.3911
X5.752Y-2.0911
X5.752Y-2.3911
X5.852Y-2.0911
X5.852Y-2.3911
X5.952Y-2.0911
X5.952Y-2.3911
X6.052Y-2.0911
X6.052Y-2.3911
X6.152Y-2.0911
X6.152Y-2.3911
X6.252Y-2.0911
X6.252Y-2.3911
X6.352Y-2.0911
X6.352Y-2.3911
X6.452Y-2.0911
X6.452Y-2.3911
X6.552Y-2.0911
X6.552Y-2.3911
X6.652Y-2.0911
X6.652Y-2.3911
X4.6187Y-2.2476
X4.7171Y-2.2476
X5.3654Y-3.0348
X5.4638Y-3.0348
X6.0741Y-3.0348
X6.1725Y-3.0348
X3.4179Y-3.035
X3.5163Y-3.035
X3.7374Y-3.0287
X3.9295Y-3.0287
X6.5662Y-4.6096
X6.6646Y-4.6096
X5.6849Y-4.6033
X5.877Y-4.6033
X3.1045Y-2.7537
X3.2045Y-2.7537
X6.5662Y-3.8222
X6.6646Y-3.8222
X4.1265Y-3.035
X4.225Y-3.035
X3.4179Y-4.6098
X3.5163Y-4.6098
X4.1265Y-3.8224
X4.225Y-3.8224
X3.1045Y-3.5411
X3.2045Y-3.5411
X3.1045Y-1.9663
X3.2045Y-1.9663
X5.3654Y-2.2474
X5.4638Y-2.2474
X3.4179Y-2.2476
X3.5163Y-2.2476
X5.352Y-3.6659
X5.352Y-3.9659
X5.452Y-3.6659
X5.452Y-3.9659
X5.552Y-3.6659
X5.552Y-3.9659
X5.652Y-3.6659
X5.652Y-3.9659
X5.752Y-3.6659
X5.752Y-3.9659
X5.852Y-3.6659
X5.852Y-3.9659
X5.952Y-3.6659
X5.952Y-3.9659
X6.052Y-3.6659
X6.052Y-3.9659
X6.152Y-3.6659
X6.152Y-3.9659
X6.252Y-3.6659
X6.252Y-3.9659
X6.352Y-3.6659
X6.352Y-3.9659
X6.452Y-3.6659
X6.452Y-3.9659
X6.552Y-3.6659
X6.552Y-3.9659
X6.652Y-3.6659
X6.652Y-3.9659
X3.7374Y-2.2413
X3.9295Y-2.2413
X6.0741Y-3.8222
X6.1725Y-3.8222
X3.4045Y-2.0913
X3.4045Y-2.3913
X3.5045Y-2.0913
X3.5045Y-2.3913
X3.6045Y-2.0913
X3.6045Y-2.3913
X3.7045Y-2.0913
X3.7045Y-2.3913
X3.8045Y-2.0913
X3.8045Y-2.3913
X3.9045Y-2.0913
X3.9045Y-2.3913
X4.0045Y-2.0913
X4.0045Y-2.3913
X4.1045Y-2.0913
X4.1045Y-2.3913
X4.2045Y-2.0913
X4.2045Y-2.3913
X4.3045Y-2.0913
X4.3045Y-2.3913
X4.4045Y-2.0913
X4.4045Y-2.3913
X4.5045Y-2.0913
X4.5045Y-2.3913
X4.6045Y-2.0913
X4.6045Y-2.3913
X4.7045Y-2.0913
X4.7045Y-2.3913
X5.352Y-2.8785
X5.352Y-3.1785
X5.452Y-2.8785
X5.452Y-3.1785
X5.552Y-2.8785
X5.552Y-3.1785
X5.652Y-2.8785
X5.652Y-3.1785
X5.752Y-2.8785
X5.752Y-3.1785
X5.852Y-2.8785
X5.852Y-3.1785
X5.952Y-2.8785
X5.952Y-3.1785
X6.052Y-2.8785
X6.052Y-3.1785
X6.152Y-2.8785
X6.152Y-3.1785
X6.252Y-2.8785
X6.252Y-3.1785
X6.352Y-2.8785
X6.352Y-3.1785
X6.452Y-2.8785
X6.452Y-3.1785
X6.552Y-2.8785
X6.552Y-3.1785
X6.652Y-2.8785
X6.652Y-3.1785
X3.4179Y-3.8224
X3.5163Y-3.8224
X3.4045Y-4.4535
X3.4045Y-4.7535
X3.5045Y-4.4535
X3.5045Y-4.7535
X3.6045Y-4.4535
X3.6045Y-4.7535
X3.7045Y-4.4535
X3.7045Y-4.7535
X3.8045Y-4.4535
X3.8045Y-4.7535
X3.9045Y-4.4535
X3.9045Y-4.7535
X4.0045Y-4.4535
X4.0045Y-4.7535
X4.1045Y-4.4535
X4.1045Y-4.7535
X4.2045Y-4.4535
X4.2045Y-4.7535
X4.3045Y-4.4535
X4.3045Y-4.7535
X4.4045Y-4.4535
X4.4045Y-4.7535
X4.5045Y-4.4535
X4.5045Y-4.7535
X4.6045Y-4.4535
X4.6045Y-4.7535
X4.7045Y-4.4535
X4.7045Y-4.7535
X5.6849Y-2.2411
X5.877Y-2.2411
X5.052Y-4.3283
X5.152Y-4.3283
X3.4045Y-3.6661
X3.4045Y-3.9661
X3.5045Y-3.6661
X3.5045Y-3.9661
X3.6045Y-3.6661
X3.6045Y-3.9661
X3.7045Y-3.6661
X3.7045Y-3.9661
X3.8045Y-3.6661
X3.8045Y-3.9661
X3.9045Y-3.6661
X3.9045Y-3.9661
X4.0045Y-3.6661
X4.0045Y-3.9661
X4.1045Y-3.6661
X4.1045Y-3.9661
X4.2045Y-3.6661
X4.2045Y-3.9661
X4.3045Y-3.6661
X4.3045Y-3.9661
X4.4045Y-3.6661
X4.4045Y-3.9661
X4.5045Y-3.6661
X4.5045Y-3.9661
X4.6045Y-3.6661
X4.6045Y-3.9661
X4.7045Y-3.6661
X4.7045Y-3.9661
X5.6849Y-3.8159
X5.877Y-3.8159
X3.4045Y-2.8787
X3.4045Y-3.1787
X3.5045Y-2.8787
X3.5045Y-3.1787
X3.6045Y-2.8787
X3.6045Y-3.1787
X3.7045Y-2.8787
X3.7045Y-3.1787
X3.8045Y-2.8787
X3.8045Y-3.1787
X3.9045Y-2.8787
X3.9045Y-3.1787
X4.0045Y-2.8787
X4.0045Y-3.1787
X4.1045Y-2.8787
X4.1045Y-3.1787
X4.2045Y-2.8787
X4.2045Y-3.1787
X4.3045Y-2.8787
X4.3045Y-3.1787
X4.4045Y-2.8787
X4.4045Y-3.1787
X4.5045Y-2.8787
X4.5045Y-3.1787
X4.6045Y-2.8787
X4.6045Y-3.1787
X4.7045Y-2.8787
X4.7045Y-3.1787
X4.1265Y-4.6098
X4.225Y-4.6098
X4.6187Y-3.8224
X4.7171Y-3.8224
T3
X6.827Y-3.5659
X6.827Y-3.6659
X6.827Y-3.7659
X6.827Y-3.8659
X6.827Y-3.9659
X6.827Y-4.0659
X5.352Y-2.5411
X5.452Y-2.5411
X5.552Y-2.5411
X5.652Y-2.5411
X5.752Y-2.5411
X5.852Y-2.5411
X5.952Y-2.5411
X6.052Y-2.5411
X6.152Y-2.5411
X6.252Y-2.5411
X6.352Y-2.5411
X6.452Y-2.5411
X6.552Y-2.5411
X6.652Y-2.5411
X5.352Y-4.3033
X5.452Y-4.3033
X5.552Y-4.3033
X5.652Y-4.3033
X5.752Y-4.3033
X5.852Y-4.3033
X5.952Y-4.3033
X6.052Y-4.3033
X6.152Y-4.3033
X6.252Y-4.3033
X6.352Y-4.3033
X6.452Y-4.3033
X6.552Y-4.3033
X6.652Y-4.3033
X5.352Y-4.1159
X5.452Y-4.1159
X5.552Y-4.1159
X5.652Y-4.1159
X5.752Y-4.1159
X5.852Y-4.1159
X5.952Y-4.1159
X6.052Y-4.1159
X6.152Y-4.1159
X6.252Y-4.1159
X6.352Y-4.1159
X6.452Y-4.1159
X6.552Y-4.1159
X6.652Y-4.1159
X3.4045Y-3.3287
X3.5045Y-3.3287
X3.6045Y-3.3287
X3.7045Y-3.3287
X3.8045Y-3.3287
X3.9045Y-3.3287
X4.0045Y-3.3287
X4.1045Y-3.3287
X4.2045Y-3.3287
X4.3045Y-3.3287
X4.4045Y-3.3287
X4.5045Y-3.3287
X4.6045Y-3.3287
X4.7045Y-3.3287
X5.352Y-1.9411
X5.452Y-1.9411
X5.552Y-1.9411
X5.652Y-1.9411
X5.752Y-1.9411
X5.852Y-1.9411
X5.952Y-1.9411
X6.052Y-1.9411
X6.152Y-1.9411
X6.252Y-1.9411
X6.352Y-1.9411
X6.452Y-1.9411
X6.552Y-1.9411
X6.652Y-1.9411
X3.4045Y-2.7287
X3.5045Y-2.7287
X3.6045Y-2.7287
X3.7045Y-2.7287
X3.8045Y-2.7287
X3.9045Y-2.7287
X4.0045Y-2.7287
X4.1045Y-2.7287
X4.2045Y-2.7287
X4.3045Y-2.7287
X4.4045Y-2.7287
X4.5045Y-2.7287
X4.6045Y-2.7287
X4.7045Y-2.7287
X4.8795Y-3.5661
X4.8795Y-3.6661
X4.8795Y-3.7661
X4.8795Y-3.8661
X4.8795Y-3.9661
X4.8795Y-4.0661
X5.352Y-4.9033
X5.452Y-4.9033
X5.552Y-4.9033
X5.652Y-4.9033
X5.752Y-4.9033
X5.852Y-4.9033
X5.952Y-4.9033
X6.052Y-4.9033
X6.152Y-4.9033
X6.252Y-4.9033
X6.352Y-4.9033
X6.452Y-4.9033
X6.552Y-4.9033
X6.652Y-4.9033
X6.827Y-1.9911
X6.827Y-2.0911
X6.827Y-2.1911
X6.827Y-2.2911
X6.827Y-2.3911
X6.827Y-2.4911
X5.352Y-3.5159
X5.452Y-3.5159
X5.552Y-3.5159
X5.652Y-3.5159
X5.752Y-3.5159
X5.852Y-3.5159
X5.952Y-3.5159
X6.052Y-3.5159
X6.152Y-3.5159
X6.252Y-3.5159
X6.352Y-3.5159
X6.452Y-3.5159
X6.552Y-3.5159
X6.652Y-3.5159
X6.827Y-2.7785
X6.827Y-2.8785
X6.827Y-2.9785
X6.827Y-3.0785
X6.827Y-3.1785
X6.827Y-3.2785
X3.4045Y-3.5161
X3.5045Y-3.5161
X3.6045Y-3.5161
X3.7045Y-3.5161
X3.8045Y-3.5161
X3.9045Y-3.5161
X4.0045Y-3.5161
X4.1045Y-3.5161
X4.2045Y-3.5161
X4.3045Y-3.5161
X4.4045Y-3.5161
X4.5045Y-3.5161
X4.6045Y-3.5161
X4.7045Y-3.5161
X5.352Y-3.3285
X5.452Y-3.3285
X5.552Y-3.3285
X5.652Y-3.3285
X5.752Y-3.3285
X5.852Y-3.3285
X5.952Y-3.3285
X6.052Y-3.3285
X6.152Y-3.3285
X6.252Y-3.3285
X6.352Y-3.3285
X6.452Y-3.3285
X6.552Y-3.3285
X6.652Y-3.3285
X4.8795Y-4.3535
X4.8795Y-4.4535
X4.8795Y-4.5535
X4.8795Y-4.6535
X4.8795Y-4.7535
X4.8795Y-4.8535
X3.4045Y-4.9035
X3.5045Y-4.9035
X3.6045Y-4.9035
X3.7045Y-4.9035
X3.8045Y-4.9035
X3.9045Y-4.9035
X4.0045Y-4.9035
X4.1045Y-4.9035
X4.2045Y-4.9035
X4.3045Y-4.9035
X4.4045Y-4.9035
X4.5045Y-4.9035
X4.6045Y-4.9035
X4.7045Y-4.9035
X3.4045Y-4.1161
X3.5045Y-4.1161
X3.6045Y-4.1161
X3.7045Y-4.1161
X3.8045Y-4.1161
X3.9045Y-4.1161
X4.0045Y-4.1161
X4.1045Y-4.1161
X4.2045Y-4.1161
X4.3045Y-4.1161
X4.4045Y-4.1161
X4.5045Y-4.1161
X4.6045Y-4.1161
X4.7045Y-4.1161
X3.4045Y-1.9413
X3.5045Y-1.9413
X3.6045Y-1.9413
X3.7045Y-1.9413
X3.8045Y-1.9413
X3.9045Y-1.9413
X4.0045Y-1.9413
X4.1045Y-1.9413
X4.2045Y-1.9413
X4.3045Y-1.9413
X4.4045Y-1.9413
X4.5045Y-1.9413
X4.6045Y-1.9413
X4.7045Y-1.9413
X3.4045Y-2.5413
X3.5045Y-2.5413
X3.6045Y-2.5413
X3.7045Y-2.5413
X3.8045Y-2.5413
X3.9045Y-2.5413
X4.0045Y-2.5413
X4.1045Y-2.5413
X4.2045Y-2.5413
X4.3045Y-2.5413
X4.4045Y-2.5413
X4.5045Y-2.5413
X4.6045Y-2.5413
X4.7045Y-2.5413
X4.8795Y-2.7787
X4.8795Y-2.8787
X4.8795Y-2.9787
X4.8795Y-3.0787
X4.8795Y-3.1787
X4.8795Y-3.2787
X3.4045Y-4.3035
X3.5045Y-4.3035
X3.6045Y-4.3035
X3.7045Y-4.3035
X3.8045Y-4.3035
X3.9045Y-4.3035
X4.0045Y-4.3035
X4.1045Y-4.3035
X4.2045Y-4.3035
X4.3045Y-4.3035
X4.4045Y-4.3035
X4.5045Y-4.3035
X4.6045Y-4.3035
X4.7045Y-4.3035
X6.827Y-4.3533
X6.827Y-4.4533
X6.827Y-4.5533
X6.827Y-4.6533
X6.827Y-4.7533
X6.827Y-4.8533
X5.352Y-2.7285
X5.452Y-2.7285
X5.552Y-2.7285
X5.652Y-2.7285
X5.752Y-2.7285
X5.852Y-2.7285
X5.952Y-2.7285
X6.052Y-2.7285
X6.152Y-2.7285
X6.252Y-2.7285
X6.352Y-2.7285
X6.452Y-2.7285
X6.552Y-2.7285
X6.652Y-2.7285
X4.8795Y-1.9913
X4.8795Y-2.0913
X4.8795Y-2.1913
X4.8795Y-2.2913
X4.8795Y-2.3913
X4.8795Y-2.4913
T4
X5.027Y-4.4724
X5.027Y-4.7283
X5.2042Y-4.4724
X5.2042Y-4.7283
X5.027Y-2.8976
X5.027Y-3.1535
X5.2042Y-2.8976
X5.2042Y-3.1535
X5.027Y-2.1102
X5.027Y-2.3661
X5.2042Y-2.1102
X5.2042Y-2.3661
X3.0795Y-2.8978
X3.0795Y-3.1537
X3.2567Y-2.8978
X3.2567Y-3.1537
X5.027Y-3.685
X5.027Y-3.9409
X5.2042Y-3.685
X5.2042Y-3.9409
X3.0795Y-4.4726
X3.0795Y-4.7285
X3.2567Y-4.4726
X3.2567Y-4.7285
X3.0795Y-3.6852
X3.0795Y-3.9411
X3.2567Y-3.6852
X3.2567Y-3.9411
X3.0795Y-2.1104
X3.0795Y-2.3663
X3.2567Y-2.1104
X3.2567Y-2.3663
T0
M30
