M48
; DRILL file {KiCad (5.1.2)-1} date 2020/10/02 1:28:23
; FORMAT={2:4/ absolute / inch / suppress leading zeros}
; #@! TF.CreationDate,2020-10-02T01:28:23+09:00
; #@! TF.GenerationSoftware,Kicad,Pcbnew,(5.1.2)-1
FMAT,2
INCH,TZ
T1C0.0157
T2C0.0315
T3C0.0394
T4C0.0433
%
G90
G05
T1
X44612Y-21492
X44612Y-29366
X44612Y-37240
X44612Y-45114
T2
X46187Y-46098
X47171Y-46098
X34179Y-22476
X35163Y-22476
X31045Y-27537
X32045Y-27537
X46187Y-22476
X47171Y-22476
X41265Y-30350
X42250Y-30350
X34045Y-20913
X34045Y-23913
X35045Y-20913
X35045Y-23913
X36045Y-20913
X36045Y-23913
X37045Y-20913
X37045Y-23913
X38045Y-20913
X38045Y-23913
X39045Y-20913
X39045Y-23913
X40045Y-20913
X40045Y-23913
X41045Y-20913
X41045Y-23913
X42045Y-20913
X42045Y-23913
X43045Y-20913
X43045Y-23913
X44045Y-20913
X44045Y-23913
X45045Y-20913
X45045Y-23913
X46045Y-20913
X46045Y-23913
X47045Y-20913
X47045Y-23913
X31045Y-43285
X32045Y-43285
X34045Y-44535
X34045Y-47535
X35045Y-44535
X35045Y-47535
X36045Y-44535
X36045Y-47535
X37045Y-44535
X37045Y-47535
X38045Y-44535
X38045Y-47535
X39045Y-44535
X39045Y-47535
X40045Y-44535
X40045Y-47535
X41045Y-44535
X41045Y-47535
X42045Y-44535
X42045Y-47535
X43045Y-44535
X43045Y-47535
X44045Y-44535
X44045Y-47535
X45045Y-44535
X45045Y-47535
X46045Y-44535
X46045Y-47535
X47045Y-44535
X47045Y-47535
X34179Y-38224
X35163Y-38224
X34179Y-46098
X35163Y-46098
X41265Y-38224
X42250Y-38224
X41265Y-22476
X42250Y-22476
X34045Y-28787
X34045Y-31787
X35045Y-28787
X35045Y-31787
X36045Y-28787
X36045Y-31787
X37045Y-28787
X37045Y-31787
X38045Y-28787
X38045Y-31787
X39045Y-28787
X39045Y-31787
X40045Y-28787
X40045Y-31787
X41045Y-28787
X41045Y-31787
X42045Y-28787
X42045Y-31787
X43045Y-28787
X43045Y-31787
X44045Y-28787
X44045Y-31787
X45045Y-28787
X45045Y-31787
X46045Y-28787
X46045Y-31787
X47045Y-28787
X47045Y-31787
X37374Y-38161
X39295Y-38161
X31045Y-35411
X32045Y-35411
X46187Y-38224
X47171Y-38224
X41265Y-46098
X42250Y-46098
X34179Y-30350
X35163Y-30350
X37374Y-30287
X39295Y-30287
X31045Y-19663
X32045Y-19663
X46187Y-30350
X47171Y-30350
X37374Y-22413
X39295Y-22413
X34045Y-36661
X34045Y-39661
X35045Y-36661
X35045Y-39661
X36045Y-36661
X36045Y-39661
X37045Y-36661
X37045Y-39661
X38045Y-36661
X38045Y-39661
X39045Y-36661
X39045Y-39661
X40045Y-36661
X40045Y-39661
X41045Y-36661
X41045Y-39661
X42045Y-36661
X42045Y-39661
X43045Y-36661
X43045Y-39661
X44045Y-36661
X44045Y-39661
X45045Y-36661
X45045Y-39661
X46045Y-36661
X46045Y-39661
X47045Y-36661
X47045Y-39661
X37374Y-46035
X39295Y-46035
T3
X34045Y-27287
X35045Y-27287
X36045Y-27287
X37045Y-27287
X38045Y-27287
X39045Y-27287
X40045Y-27287
X41045Y-27287
X42045Y-27287
X43045Y-27287
X44045Y-27287
X45045Y-27287
X46045Y-27287
X47045Y-27287
X48795Y-27787
X48795Y-28787
X48795Y-29787
X48795Y-30787
X48795Y-31787
X48795Y-32787
X34045Y-49035
X35045Y-49035
X36045Y-49035
X37045Y-49035
X38045Y-49035
X39045Y-49035
X40045Y-49035
X41045Y-49035
X42045Y-49035
X43045Y-49035
X44045Y-49035
X45045Y-49035
X46045Y-49035
X47045Y-49035
X34045Y-41161
X35045Y-41161
X36045Y-41161
X37045Y-41161
X38045Y-41161
X39045Y-41161
X40045Y-41161
X41045Y-41161
X42045Y-41161
X43045Y-41161
X44045Y-41161
X45045Y-41161
X46045Y-41161
X47045Y-41161
X34045Y-19413
X35045Y-19413
X36045Y-19413
X37045Y-19413
X38045Y-19413
X39045Y-19413
X40045Y-19413
X41045Y-19413
X42045Y-19413
X43045Y-19413
X44045Y-19413
X45045Y-19413
X46045Y-19413
X47045Y-19413
X48795Y-19913
X48795Y-20913
X48795Y-21913
X48795Y-22913
X48795Y-23913
X48795Y-24913
X34045Y-33287
X35045Y-33287
X36045Y-33287
X37045Y-33287
X38045Y-33287
X39045Y-33287
X40045Y-33287
X41045Y-33287
X42045Y-33287
X43045Y-33287
X44045Y-33287
X45045Y-33287
X46045Y-33287
X47045Y-33287
X48795Y-35661
X48795Y-36661
X48795Y-37661
X48795Y-38661
X48795Y-39661
X48795Y-40661
X48795Y-43535
X48795Y-44535
X48795Y-45535
X48795Y-46535
X48795Y-47535
X48795Y-48535
X34045Y-25413
X35045Y-25413
X36045Y-25413
X37045Y-25413
X38045Y-25413
X39045Y-25413
X40045Y-25413
X41045Y-25413
X42045Y-25413
X43045Y-25413
X44045Y-25413
X45045Y-25413
X46045Y-25413
X47045Y-25413
X34045Y-35161
X35045Y-35161
X36045Y-35161
X37045Y-35161
X38045Y-35161
X39045Y-35161
X40045Y-35161
X41045Y-35161
X42045Y-35161
X43045Y-35161
X44045Y-35161
X45045Y-35161
X46045Y-35161
X47045Y-35161
X34045Y-43035
X35045Y-43035
X36045Y-43035
X37045Y-43035
X38045Y-43035
X39045Y-43035
X40045Y-43035
X41045Y-43035
X42045Y-43035
X43045Y-43035
X44045Y-43035
X45045Y-43035
X46045Y-43035
X47045Y-43035
T4
X30795Y-21104
X30795Y-23663
X32567Y-21104
X32567Y-23663
X30795Y-36852
X30795Y-39411
X32567Y-36852
X32567Y-39411
X30795Y-44726
X30795Y-47285
X32567Y-44726
X32567Y-47285
X30795Y-28978
X30795Y-31537
X32567Y-28978
X32567Y-31537
T0
M30
